<svg width="643" height="369" viewBox="0 0 643 369" fill="none" xmlns="http://www.w3.org/2000/svg">
<path d="M16.0001 264.47C15.6341 264.47 15.2831 264.325 15.0243 264.066C14.7655 263.807 14.6201 263.456 14.6201 263.09V169.38C14.6201 169.199 14.6558 169.019 14.7252 168.852C14.7945 168.684 14.8962 168.532 15.0243 168.404C15.1525 168.276 15.3046 168.174 15.472 168.105C15.6394 168.036 15.8189 168 16.0001 168C16.1813 168 16.3608 168.036 16.5282 168.105C16.6957 168.174 16.8478 168.276 16.9759 168.404C17.1041 168.532 17.2057 168.684 17.2751 168.852C17.3444 169.019 17.3801 169.199 17.3801 169.38V263.09C17.3814 263.272 17.3467 263.452 17.2778 263.62C17.2089 263.788 17.1073 263.94 16.9789 264.069C16.8505 264.197 16.6978 264.299 16.5298 264.368C16.3618 264.437 16.1817 264.471 16.0001 264.47Z" fill="#3E435D" stroke="#263238" stroke-linecap="round" stroke-linejoin="round"/>
<path d="M15.32 260.86C15.32 260.86 8.57 264.35 6.83 274.12C5.09 283.89 1.25 301.69 1.25 301.69H28.46C28.46 301.69 26.72 281.8 24.62 273.43C22.52 265.06 16.71 259.67 15.32 260.86Z" fill="#3E435D" stroke="#263238" stroke-linecap="round" stroke-linejoin="round"/>
<path d="M20.1899 261.91C20.1088 262.716 19.7958 263.481 19.2888 264.112C18.7819 264.744 18.1028 265.215 17.3337 265.469C16.5646 265.723 15.7384 265.748 14.9551 265.542C14.1719 265.336 13.4651 264.907 12.9204 264.308C12.3757 263.709 12.0163 262.964 11.8858 262.165C11.7553 261.366 11.8593 260.546 12.1851 259.804C12.5109 259.063 13.0446 258.432 13.7217 257.987C14.3987 257.543 15.1901 257.304 15.9999 257.3C16.578 257.327 17.145 257.468 17.6686 257.714C18.1922 257.96 18.662 258.308 19.0512 258.736C19.4405 259.164 19.7414 259.665 19.9368 260.21C20.1322 260.754 20.2182 261.332 20.1899 261.91Z" fill="#C97805" stroke="#3E435D" stroke-linecap="round" stroke-linejoin="round"/>
<path d="M6.12988 301.34L8.91988 288.08" stroke="#263238" stroke-linecap="round" stroke-linejoin="round"/>
<path d="M13.1099 282.85L10.6699 297.15" stroke="#263238" stroke-linecap="round" stroke-linejoin="round"/>
<path d="M16.6001 300.99L17.3001 294.71" stroke="#263238" stroke-linecap="round" stroke-linejoin="round"/>
<path d="M23.23 300.64L21.48 287.03" stroke="#263238" stroke-linecap="round" stroke-linejoin="round"/>
<path d="M84.1101 61.25L11.3701 172L138.5 117.61L224.34 40.28L84.1101 61.25Z" fill="#3E435D" stroke="#263238" stroke-linecap="round" stroke-linejoin="round"/>
<path d="M172 78.64C165.68 65.36 136.7 65.94 107.27 79.94C77.84 93.94 59.11 116.06 65.43 129.34L85.18 168.34L191.74 117.64L172 78.64Z" fill="white" stroke="#3E435D" stroke-linecap="round" stroke-linejoin="round"/>
<path d="M149.932 167.062C179.36 153.058 198.092 130.939 191.772 117.659C185.452 104.378 156.473 104.966 127.045 118.971C97.6172 132.976 78.8847 155.094 85.2048 168.375C91.5248 181.655 120.504 181.067 149.932 167.062Z" fill="#3E435D" stroke="#3E435D" stroke-linecap="round" stroke-linejoin="round"/>
<path d="M493.31 361.23H360.65L365.12 355.7C372.13 347.078 375.971 336.312 376 325.2V291.28H478V325.2C478.008 336.309 481.835 347.077 488.84 355.7L493.31 361.23Z" fill="white" stroke="#3E435D" stroke-linecap="round" stroke-linejoin="round"/>
<path d="M478 291.28H375.96V317.74H478V291.28Z" fill="#3E435D" stroke="#3E435D" stroke-linecap="round" stroke-linejoin="round"/>
<path d="M623.59 0.799988H230.38C225.697 0.799988 221.9 4.59661 221.9 9.27998V293.49C221.9 298.173 225.697 301.97 230.38 301.97H623.59C628.273 301.97 632.07 298.173 632.07 293.49V9.27998C632.07 4.59661 628.273 0.799988 623.59 0.799988Z" fill="#3E435D" stroke="#3E435D" stroke-linecap="round" stroke-linejoin="round"/>
<path d="M221.9 255.16H632.07V293.49C632.07 295.739 631.176 297.896 629.586 299.486C627.996 301.077 625.839 301.97 623.59 301.97H230.38C229.266 301.97 228.164 301.751 227.135 301.324C226.106 300.898 225.171 300.274 224.384 299.486C223.596 298.699 222.972 297.764 222.545 296.735C222.119 295.706 221.9 294.604 221.9 293.49V255.16Z" fill="white" stroke="#3E435D" stroke-linecap="round" stroke-linejoin="round"/>
<path d="M611.43 19.54H242.53V232.32H611.43V19.54Z" fill="white" stroke="#3E435D" stroke-linecap="round" stroke-linejoin="round"/>
<path d="M263 54H356" stroke="#3E435D" stroke-miterlimit="10"/>
<path d="M263 100H356" stroke="#3E435D" stroke-miterlimit="10"/>
<path d="M263 69H356" stroke="#3E435D" stroke-miterlimit="10"/>
<path d="M263 115H356" stroke="#3E435D" stroke-miterlimit="10"/>
<path d="M263 85H356" stroke="#3E435D" stroke-miterlimit="10"/>
<path d="M263 131H356" stroke="#3E435D" stroke-miterlimit="10"/>
<path d="M611.43 219.04H242.53V232.32H611.43V219.04Z" fill="white" stroke="#3E435D" stroke-linecap="round" stroke-linejoin="round"/>
<path d="M493.35 361.22H360.65V367.28H493.35V361.22Z" fill="#3E435D" stroke="#3E435D" stroke-linecap="round" stroke-linejoin="round"/>
<path d="M642.34 367.28H6.18994" stroke="#3E435D" stroke-linecap="round" stroke-linejoin="round"/>
<path d="M227.308 328.715V299.515H225.225C224.864 299.515 224.518 299.373 224.262 299.118C224.006 298.863 223.861 298.518 223.859 298.157V298.089C223.859 297.727 224.003 297.38 224.259 297.123C224.515 296.867 224.863 296.723 225.225 296.723H356.32V331.544H225.24C224.878 331.544 224.53 331.4 224.274 331.144C224.018 330.888 223.874 330.54 223.874 330.178C223.872 329.803 224.012 329.441 224.265 329.165C224.519 328.888 224.866 328.717 225.24 328.685L227.308 328.715Z" fill="#09328B"/>
<path d="M356.32 331.918H225.24C224.779 331.918 224.336 331.734 224.01 331.408C223.684 331.082 223.5 330.64 223.5 330.178C223.515 329.72 223.695 329.282 224.006 328.944C224.317 328.607 224.739 328.393 225.195 328.341H226.95V299.889H225.24C224.779 299.889 224.336 299.705 224.01 299.379C223.684 299.053 223.5 298.611 223.5 298.149C223.495 297.917 223.537 297.685 223.622 297.469C223.706 297.252 223.833 297.054 223.995 296.887C224.157 296.72 224.35 296.586 224.564 296.494C224.778 296.402 225.007 296.353 225.24 296.35H356.32C356.419 296.35 356.514 296.389 356.584 296.459C356.654 296.529 356.693 296.624 356.693 296.723V331.544C356.693 331.643 356.654 331.738 356.584 331.808C356.514 331.878 356.419 331.918 356.32 331.918ZM225.24 329.081C224.972 329.119 224.726 329.249 224.545 329.45C224.364 329.65 224.258 329.908 224.247 330.178C224.249 330.441 224.354 330.692 224.54 330.878C224.726 331.064 224.977 331.169 225.24 331.171H355.946V297.097H225.24C224.969 297.097 224.709 297.204 224.517 297.396C224.325 297.588 224.217 297.848 224.217 298.119C224.217 298.391 224.325 298.651 224.517 298.843C224.709 299.034 224.969 299.142 225.24 299.142H227.308C227.407 299.142 227.502 299.182 227.572 299.252C227.642 299.322 227.681 299.416 227.681 299.515V328.707C227.681 328.806 227.642 328.901 227.572 328.971C227.502 329.041 227.407 329.081 227.308 329.081H225.24Z" fill="#3E435D"/>
<path d="M226.651 328.7H356.327V299.568H226.651V328.7Z" fill="white"/>
<path d="M356.32 329.073H226.644C226.545 329.073 226.45 329.034 226.38 328.964C226.31 328.894 226.271 328.799 226.271 328.7V299.583C226.271 299.484 226.31 299.389 226.38 299.319C226.45 299.249 226.545 299.209 226.644 299.209H356.32C356.419 299.209 356.514 299.249 356.584 299.319C356.654 299.389 356.693 299.484 356.693 299.583V328.7C356.693 328.799 356.654 328.894 356.584 328.964C356.514 329.034 356.419 329.073 356.32 329.073ZM227.017 328.327H355.947V299.956H227.017V328.327Z" fill="#3E435D"/>
<path d="M440.073 331.515H356.335V296.768H440.073C444.429 296.768 448.607 298.498 451.687 301.579C454.768 304.659 456.498 308.837 456.498 313.193V315.06C456.502 317.219 456.08 319.358 455.256 321.354C454.433 323.351 453.223 325.165 451.698 326.693C450.172 328.222 448.36 329.434 446.365 330.261C444.371 331.089 442.232 331.515 440.073 331.515Z" fill="#09328B"/>
<path d="M440.088 331.888H356.327C356.228 331.888 356.133 331.849 356.063 331.779C355.993 331.708 355.954 331.614 355.954 331.515V296.753C355.954 296.654 355.993 296.559 356.063 296.489C356.133 296.419 356.228 296.38 356.327 296.38H440.088C444.549 296.386 448.825 298.161 451.978 301.316C455.132 304.47 456.905 308.747 456.909 313.208V315.075C456.901 319.533 455.126 323.806 451.973 326.957C448.82 330.109 444.546 331.882 440.088 331.888ZM356.716 331.141H440.088C444.345 331.131 448.425 329.435 451.435 326.424C454.445 323.413 456.139 319.332 456.147 315.075V313.208C456.135 308.953 454.439 304.876 451.43 301.868C448.421 298.86 444.343 297.166 440.088 297.156H356.701L356.716 331.141Z" fill="#3E435D"/>
<path d="M439.692 328.7H356.327V299.583H439.692C443.349 299.583 446.857 301.035 449.443 303.622C452.029 306.208 453.481 309.715 453.481 313.372V314.91C453.481 318.567 452.029 322.075 449.443 324.661C446.857 327.247 443.349 328.7 439.692 328.7Z" fill="white"/>
<path d="M439.692 329.073H356.327C356.228 329.073 356.133 329.034 356.063 328.964C355.993 328.894 355.954 328.799 355.954 328.7V299.583C355.954 299.484 355.993 299.389 356.063 299.319C356.133 299.249 356.228 299.209 356.327 299.209H439.692C443.454 299.209 447.062 300.704 449.723 303.364C452.383 306.024 453.877 309.632 453.877 313.395V314.948C453.862 318.699 452.36 322.292 449.702 324.94C447.043 327.587 443.444 329.073 439.692 329.073ZM356.701 328.327H439.692C443.256 328.327 446.675 326.911 449.195 324.39C451.715 321.87 453.131 318.452 453.131 314.888V313.357C453.131 309.793 451.715 306.375 449.195 303.855C446.675 301.334 443.256 299.919 439.692 299.919H356.701V328.327Z" fill="#3E435D"/>
<path d="M355.805 305.779H334.467C334.368 305.779 334.273 305.74 334.203 305.67C334.133 305.6 334.094 305.505 334.094 305.406C334.096 305.308 334.136 305.214 334.205 305.144C334.275 305.075 334.369 305.035 334.467 305.033H355.805C355.903 305.035 355.997 305.075 356.067 305.144C356.136 305.214 356.176 305.308 356.178 305.406C356.178 305.505 356.139 305.6 356.069 305.67C355.999 305.74 355.904 305.779 355.805 305.779Z" fill="#3E435D"/>
<path d="M347.801 310.319H295.54C295.441 310.317 295.348 310.277 295.278 310.207C295.208 310.138 295.168 310.044 295.167 309.945C295.167 309.846 295.206 309.751 295.276 309.681C295.346 309.611 295.441 309.572 295.54 309.572H347.801C347.9 309.572 347.995 309.611 348.065 309.681C348.135 309.751 348.175 309.846 348.175 309.945C348.175 310.044 348.135 310.139 348.065 310.209C347.995 310.279 347.9 310.319 347.801 310.319Z" fill="#3E435D"/>
<path d="M352.333 316.717H340.873C340.774 316.717 340.679 316.678 340.609 316.608C340.539 316.538 340.5 316.443 340.5 316.344C340.5 316.245 340.539 316.15 340.609 316.08C340.679 316.01 340.774 315.97 340.873 315.97H352.333C352.432 315.97 352.527 316.01 352.597 316.08C352.667 316.15 352.706 316.245 352.706 316.344C352.706 316.443 352.667 316.538 352.597 316.608C352.527 316.678 352.432 316.717 352.333 316.717Z" fill="#3E435D"/>
<path d="M263.533 304.45H233.93C233.832 304.449 233.738 304.409 233.669 304.339C233.599 304.269 233.559 304.176 233.557 304.077C233.557 303.978 233.596 303.883 233.666 303.813C233.736 303.743 233.831 303.704 233.93 303.704H263.533C263.632 303.704 263.727 303.743 263.797 303.813C263.867 303.883 263.906 303.978 263.906 304.077C263.906 304.176 263.867 304.271 263.797 304.341C263.727 304.411 263.632 304.45 263.533 304.45Z" fill="#3E435D"/>
<path d="M238.462 314.851H227.002C226.903 314.851 226.808 314.811 226.738 314.741C226.668 314.671 226.629 314.576 226.629 314.477C226.629 314.378 226.668 314.283 226.738 314.213C226.808 314.143 226.903 314.104 227.002 314.104H238.462C238.561 314.104 238.656 314.143 238.726 314.213C238.796 314.283 238.836 314.378 238.836 314.477C238.836 314.576 238.796 314.671 238.726 314.741C238.656 314.811 238.561 314.851 238.462 314.851Z" fill="#3E435D"/>
<path d="M245.398 320.719H233.401C233.302 320.719 233.207 320.679 233.137 320.609C233.067 320.539 233.027 320.444 233.027 320.345C233.027 320.246 233.067 320.152 233.137 320.082C233.207 320.012 233.302 319.972 233.401 319.972H245.398C245.497 319.972 245.592 320.012 245.662 320.082C245.732 320.152 245.772 320.246 245.772 320.345C245.772 320.444 245.732 320.539 245.662 320.609C245.592 320.679 245.497 320.719 245.398 320.719Z" fill="#3E435D"/>
<path d="M453.482 314.365H429.143C429.044 314.365 428.949 314.326 428.879 314.256C428.809 314.186 428.77 314.091 428.77 313.992C428.77 313.893 428.809 313.798 428.879 313.728C428.949 313.658 429.044 313.619 429.143 313.619H453.482C453.58 313.621 453.674 313.66 453.744 313.73C453.813 313.8 453.853 313.894 453.855 313.992C453.855 314.091 453.816 314.186 453.746 314.256C453.676 314.326 453.581 314.365 453.482 314.365Z" fill="#3E435D"/>
<path d="M444.605 310.849H431.808C431.709 310.849 431.614 310.809 431.544 310.739C431.474 310.669 431.435 310.574 431.435 310.475C431.435 310.376 431.474 310.282 431.544 310.212C431.614 310.142 431.709 310.102 431.808 310.102H444.605C444.704 310.102 444.799 310.142 444.869 310.212C444.939 310.282 444.978 310.376 444.978 310.475C444.978 310.574 444.939 310.669 444.869 310.739C444.799 310.809 444.704 310.849 444.605 310.849Z" fill="#3E435D"/>
<path d="M447.27 318.852H412.875C412.776 318.852 412.681 318.813 412.611 318.743C412.541 318.673 412.501 318.578 412.501 318.479C412.501 318.38 412.541 318.285 412.611 318.215C412.681 318.145 412.776 318.106 412.875 318.106H447.27C447.369 318.106 447.464 318.145 447.534 318.215C447.604 318.285 447.644 318.38 447.644 318.479C447.644 318.578 447.604 318.673 447.534 318.743C447.464 318.813 447.369 318.852 447.27 318.852Z" fill="#3E435D"/>
<path d="M367.273 323.653H356.335C356.237 323.651 356.143 323.611 356.073 323.541C356.004 323.472 355.964 323.378 355.962 323.28C355.962 323.181 356.001 323.086 356.071 323.016C356.141 322.946 356.236 322.906 356.335 322.906H367.273C367.372 322.906 367.467 322.946 367.537 323.016C367.607 323.086 367.646 323.181 367.646 323.28C367.644 323.378 367.604 323.472 367.535 323.541C367.465 323.611 367.371 323.651 367.273 323.653Z" fill="#3E435D"/>
<path d="M362.442 320.181H348.6C348.501 320.181 348.406 320.142 348.336 320.072C348.266 320.002 348.227 319.907 348.227 319.808C348.228 319.709 348.268 319.616 348.338 319.546C348.408 319.476 348.501 319.437 348.6 319.435H362.442C362.54 319.437 362.634 319.476 362.704 319.546C362.773 319.616 362.813 319.709 362.815 319.808C362.815 319.907 362.776 320.002 362.706 320.072C362.636 320.142 362.541 320.181 362.442 320.181Z" fill="#3E435D"/>
<path d="M206.77 264.635C206.407 264.635 206.06 264.491 205.803 264.234C205.547 263.978 205.403 263.631 205.403 263.268V263.209C205.403 262.846 205.547 262.499 205.803 262.242C206.06 261.986 206.407 261.842 206.77 261.842H337.849H420.677C422.96 261.843 425.22 262.294 427.329 263.169C429.438 264.044 431.354 265.325 432.967 266.941C434.58 268.556 435.86 270.474 436.732 272.584C437.604 274.694 438.052 276.955 438.05 279.238C438.051 281.52 437.602 283.781 436.73 285.89C435.857 287.999 434.578 289.916 432.964 291.53C431.351 293.145 429.436 294.426 427.327 295.3C425.219 296.175 422.959 296.625 420.677 296.626H339.85H206.77C206.591 296.627 206.413 296.593 206.247 296.525C206.082 296.457 205.931 296.357 205.804 296.231C205.677 296.105 205.576 295.954 205.507 295.789C205.439 295.624 205.403 295.446 205.403 295.267C205.412 294.895 205.555 294.539 205.806 294.264C206.057 293.99 206.4 293.816 206.77 293.774H208.853V264.582L206.77 264.635Z" fill="#AE05C9"/>
<path d="M339.85 297.029H206.769C206.541 297.03 206.315 296.986 206.104 296.9C205.893 296.813 205.701 296.686 205.54 296.525C205.378 296.364 205.25 296.172 205.162 295.962C205.075 295.751 205.03 295.525 205.03 295.297C205.043 294.838 205.22 294.4 205.53 294.061C205.84 293.723 206.261 293.507 206.717 293.453H208.479V265.008H206.769C206.3 265.008 205.85 264.821 205.518 264.49C205.186 264.158 205 263.708 205 263.238C205 262.769 205.186 262.319 205.518 261.987C205.85 261.655 206.3 261.469 206.769 261.469H337.849C337.898 261.458 337.949 261.458 337.998 261.469H420.676C423.038 261.421 425.386 261.844 427.582 262.714C429.778 263.584 431.778 264.884 433.465 266.537C435.152 268.19 436.493 270.163 437.408 272.341C438.323 274.519 438.795 276.857 438.795 279.219C438.795 281.581 438.323 283.92 437.408 286.097C436.493 288.275 435.152 290.248 433.465 291.901C431.778 293.554 429.778 294.854 427.582 295.724C425.386 296.595 423.038 297.018 420.676 296.97H339.992C339.95 297.001 339.902 297.022 339.85 297.029ZM206.769 294.17C206.501 294.207 206.255 294.337 206.073 294.538C205.891 294.738 205.786 294.997 205.776 295.267C205.778 295.529 205.884 295.78 206.07 295.965C206.256 296.149 206.507 296.253 206.769 296.253H339.716C339.76 296.245 339.806 296.245 339.85 296.253H420.676C422.939 296.3 425.189 295.896 427.293 295.062C429.398 294.229 431.315 292.984 432.932 291.401C434.549 289.817 435.834 287.926 436.711 285.84C437.588 283.753 438.04 281.513 438.04 279.249C438.04 276.986 437.588 274.745 436.711 272.658C435.834 270.572 434.549 268.681 432.932 267.098C431.315 265.514 429.398 264.269 427.293 263.436C425.189 262.603 422.939 262.198 420.676 262.245H337.901C337.833 262.26 337.761 262.26 337.692 262.245H206.769C206.506 262.245 206.254 262.35 206.067 262.536C205.881 262.722 205.776 262.975 205.776 263.238C205.771 263.373 205.793 263.507 205.841 263.633C205.888 263.759 205.96 263.875 206.053 263.973C206.145 264.071 206.256 264.149 206.379 264.204C206.502 264.259 206.635 264.288 206.769 264.291H208.852C208.951 264.291 209.046 264.33 209.116 264.4C209.186 264.47 209.226 264.565 209.226 264.664V293.856C209.226 293.955 209.186 294.05 209.116 294.12C209.046 294.19 208.951 294.23 208.852 294.23L206.769 294.17Z" fill="#3E435D"/>
<path d="M416.361 279.238C416.361 269.637 405.909 261.857 396.345 261.857H407.454C412.064 261.857 416.485 263.688 419.744 266.948C423.004 270.207 424.835 274.628 424.835 279.238C424.835 281.52 424.385 283.78 423.512 285.888C422.638 287.996 421.358 289.912 419.744 291.525C418.13 293.139 416.214 294.418 414.105 295.291C411.996 296.164 409.736 296.612 407.454 296.611H396.345C405.938 296.626 416.361 288.847 416.361 279.238Z" fill="#E5E5E5"/>
<path d="M407.454 296.999H396.345C396.246 296.999 396.151 296.96 396.081 296.89C396.011 296.82 395.972 296.725 395.972 296.626C395.972 296.527 396.011 296.432 396.081 296.362C396.151 296.292 396.246 296.253 396.345 296.253C405.431 296.253 415.988 288.787 415.988 279.253C415.988 269.719 405.431 262.245 396.345 262.245C396.246 262.245 396.151 262.206 396.081 262.136C396.011 262.066 395.972 261.971 395.972 261.872C395.972 261.773 396.011 261.678 396.081 261.608C396.151 261.538 396.246 261.499 396.345 261.499H407.454C409.816 261.45 412.164 261.874 414.36 262.744C416.555 263.614 418.556 264.914 420.243 266.567C421.93 268.22 423.271 270.193 424.186 272.371C425.101 274.549 425.572 276.887 425.572 279.249C425.572 281.611 425.101 283.95 424.186 286.127C423.271 288.305 421.93 290.278 420.243 291.931C418.556 293.584 416.555 294.884 414.36 295.754C412.164 296.625 409.816 297.048 407.454 296.999ZM401.601 296.253H407.454C409.717 296.3 411.967 295.896 414.071 295.062C416.176 294.229 418.093 292.984 419.71 291.401C421.327 289.817 422.612 287.926 423.489 285.84C424.366 283.753 424.818 281.513 424.818 279.249C424.818 276.986 424.366 274.745 423.489 272.658C422.612 270.572 421.327 268.681 419.71 267.098C418.093 265.514 416.176 264.269 414.071 263.436C411.967 262.603 409.717 262.198 407.454 262.245H401.601C409.418 264.411 416.734 271.085 416.734 279.253C416.734 287.421 409.418 294.088 401.601 296.253Z" fill="#3E435D"/>
<path d="M351.855 279.238C351.855 269.637 341.403 261.857 331.839 261.857H342.948C347.558 261.857 351.979 263.688 355.238 266.948C358.498 270.207 360.329 274.628 360.329 279.238C360.329 281.52 359.879 283.78 359.006 285.888C358.132 287.996 356.852 289.912 355.238 291.525C353.624 293.139 351.708 294.418 349.599 295.291C347.49 296.164 345.23 296.612 342.948 296.611H331.832C341.433 296.626 351.855 288.847 351.855 279.238Z" fill="#E5E5E5"/>
<path d="M342.948 296.999H331.831C331.732 296.999 331.637 296.96 331.567 296.89C331.497 296.82 331.458 296.725 331.458 296.626C331.458 296.527 331.497 296.432 331.567 296.362C331.637 296.292 331.732 296.253 331.831 296.253C340.917 296.253 351.474 288.787 351.474 279.253C351.474 269.719 340.925 262.245 331.831 262.245C331.732 262.245 331.637 262.206 331.567 262.136C331.497 262.066 331.458 261.971 331.458 261.872C331.458 261.773 331.497 261.678 331.567 261.608C331.637 261.538 331.732 261.499 331.831 261.499H342.941C345.302 261.45 347.65 261.874 349.846 262.744C352.042 263.614 354.042 264.914 355.729 266.567C357.417 268.22 358.757 270.193 359.672 272.371C360.587 274.549 361.059 276.887 361.059 279.249C361.059 281.611 360.587 283.95 359.672 286.127C358.757 288.305 357.417 290.278 355.729 291.931C354.042 293.584 352.042 294.884 349.846 295.754C347.65 296.625 345.302 297.048 342.941 296.999H342.948ZM337.095 296.253H342.948C345.211 296.3 347.461 295.896 349.565 295.062C351.67 294.229 353.587 292.984 355.204 291.401C356.821 289.817 358.106 287.926 358.983 285.84C359.86 283.753 360.312 281.513 360.312 279.249C360.312 276.986 359.86 274.745 358.983 272.658C358.106 270.572 356.821 268.681 355.204 267.098C353.587 265.514 351.67 264.269 349.565 263.436C347.461 262.603 345.211 262.198 342.948 262.245H337.095C344.912 264.411 352.228 271.085 352.228 279.253C352.228 287.421 344.912 294.088 337.095 296.253Z" fill="#3E435D"/>
<path d="M205.403 295.297C205.412 294.925 205.555 294.569 205.806 294.294C206.057 294.02 206.4 293.845 206.77 293.804H208.853V264.612H206.77C206.407 264.612 206.06 264.468 205.803 264.212C205.547 263.956 205.403 263.608 205.403 263.246V263.186C205.403 262.824 205.547 262.476 205.803 262.22C206.06 261.964 206.407 261.82 206.77 261.82H234.274H317.094C319.38 261.82 321.643 262.271 323.754 263.146C325.865 264.022 327.783 265.306 329.397 266.924C331.012 268.542 332.291 270.462 333.162 272.575C334.034 274.688 334.48 276.952 334.475 279.238C334.475 281.52 334.025 283.78 333.152 285.888C332.278 287.996 330.998 289.912 329.384 291.525C327.769 293.139 325.853 294.418 323.745 295.291C321.636 296.164 319.376 296.612 317.094 296.611H236.268H206.77C206.416 296.613 206.075 296.477 205.819 296.232C205.564 295.986 205.415 295.651 205.403 295.297Z" fill="#87139A"/>
<path d="M236.267 297.029H206.769C206.541 297.03 206.315 296.986 206.104 296.9C205.893 296.813 205.701 296.686 205.54 296.525C205.378 296.364 205.25 296.172 205.162 295.962C205.075 295.751 205.03 295.525 205.03 295.297C205.043 294.838 205.22 294.4 205.53 294.061C205.84 293.723 206.261 293.507 206.717 293.453H208.479V265.008H206.769C206.3 265.008 205.85 264.821 205.518 264.49C205.186 264.158 205 263.708 205 263.238C205 262.769 205.186 262.319 205.518 261.987C205.85 261.655 206.3 261.469 206.769 261.469H234.274C234.323 261.458 234.374 261.458 234.423 261.469H317.094C319.455 261.421 321.803 261.844 323.999 262.714C326.195 263.584 328.195 264.884 329.882 266.537C331.57 268.19 332.91 270.163 333.825 272.341C334.741 274.519 335.212 276.857 335.212 279.219C335.212 281.581 334.741 283.92 333.825 286.097C332.91 288.275 331.57 290.248 329.882 291.901C328.195 293.554 326.195 294.854 323.999 295.724C321.803 296.595 319.455 297.018 317.094 296.97H236.417C236.374 297.003 236.322 297.024 236.267 297.029ZM206.769 294.17C206.501 294.207 206.255 294.337 206.073 294.538C205.891 294.738 205.786 294.997 205.776 295.267C205.778 295.529 205.884 295.78 206.07 295.965C206.256 296.149 206.507 296.253 206.769 296.253H236.14C236.187 296.245 236.235 296.245 236.282 296.253H317.094C319.357 296.3 321.606 295.896 323.711 295.062C325.815 294.229 327.732 292.984 329.35 291.401C330.967 289.817 332.252 287.926 333.129 285.84C334.006 283.753 334.458 281.513 334.458 279.249C334.458 276.986 334.006 274.745 333.129 272.658C332.252 270.572 330.967 268.681 329.35 267.098C327.732 265.514 325.815 264.269 323.711 263.436C321.606 262.603 319.357 262.198 317.094 262.245H234.326C234.26 262.26 234.191 262.26 234.125 262.245H206.769C206.506 262.245 206.254 262.35 206.067 262.536C205.881 262.722 205.776 262.975 205.776 263.238C205.771 263.373 205.793 263.507 205.841 263.633C205.888 263.759 205.96 263.875 206.053 263.973C206.145 264.071 206.256 264.149 206.379 264.204C206.502 264.259 206.635 264.288 206.769 264.291H208.852C208.951 264.291 209.046 264.33 209.116 264.4C209.186 264.47 209.226 264.565 209.226 264.664V293.856C209.226 293.955 209.186 294.05 209.116 294.12C209.046 294.19 208.951 294.23 208.852 294.23L206.769 294.17Z" fill="#3E435D"/>
<path d="M320.11 265.09C323.255 265.85 326.054 267.647 328.055 270.19C330.057 272.733 331.145 275.875 331.145 279.111V279.387C331.145 282.625 330.058 285.77 328.057 288.315C326.055 290.861 323.257 292.66 320.11 293.423L208.173 293.826V264.709L320.11 265.09Z" fill="white"/>
<path d="M208.173 294.17C208.075 294.168 207.981 294.128 207.912 294.058C207.876 294.025 207.847 293.984 207.828 293.939C207.809 293.894 207.799 293.845 207.8 293.797V264.679C207.799 264.63 207.809 264.582 207.828 264.537C207.847 264.492 207.876 264.451 207.912 264.418C207.981 264.348 208.075 264.308 208.173 264.306L320.11 264.717H320.2C323.431 265.49 326.306 267.331 328.36 269.942C330.414 272.553 331.527 275.781 331.518 279.104V279.38C331.527 282.702 330.414 285.93 328.36 288.541C326.306 291.152 323.431 292.993 320.2 293.767H320.11L208.173 294.17ZM208.546 265.053V293.423L320.065 293.02C323.124 292.277 325.844 290.526 327.786 288.049C329.728 285.572 330.78 282.513 330.772 279.365V279.089C330.781 275.941 329.73 272.883 327.787 270.407C325.845 267.93 323.124 266.181 320.065 265.441L208.546 265.053Z" fill="#3E435D"/>
<path d="M324.164 270.898H315.996C315.897 270.898 315.802 270.859 315.732 270.789C315.662 270.719 315.623 270.624 315.623 270.525C315.623 270.426 315.662 270.331 315.732 270.261C315.802 270.191 315.897 270.152 315.996 270.152H324.164C324.263 270.152 324.358 270.191 324.428 270.261C324.498 270.331 324.537 270.426 324.537 270.525C324.537 270.624 324.498 270.719 324.428 270.789C324.358 270.859 324.263 270.898 324.164 270.898Z" fill="#3E435D"/>
<path d="M329.33 275.43H277.069C276.97 275.43 276.875 275.391 276.805 275.321C276.735 275.251 276.695 275.156 276.695 275.057C276.695 274.958 276.735 274.863 276.805 274.793C276.875 274.723 276.97 274.684 277.069 274.684H329.33C329.429 274.684 329.524 274.723 329.594 274.793C329.664 274.863 329.704 274.958 329.704 275.057C329.704 275.156 329.664 275.251 329.594 275.321C329.524 275.391 329.429 275.43 329.33 275.43Z" fill="#3E435D"/>
<path d="M328.845 281.829H322.417C322.318 281.829 322.223 281.789 322.153 281.719C322.083 281.649 322.044 281.554 322.044 281.455C322.044 281.356 322.083 281.261 322.153 281.191C322.223 281.121 322.318 281.082 322.417 281.082H328.845C328.944 281.082 329.039 281.121 329.109 281.191C329.179 281.261 329.219 281.356 329.219 281.455C329.219 281.554 329.179 281.649 329.109 281.719C329.039 281.789 328.944 281.829 328.845 281.829Z" fill="#3E435D"/>
<path d="M245.062 269.532H215.46C215.361 269.532 215.266 269.493 215.196 269.423C215.126 269.353 215.086 269.258 215.086 269.159C215.086 269.06 215.126 268.965 215.196 268.895C215.266 268.825 215.361 268.786 215.46 268.786H245.062C245.161 268.788 245.254 268.827 245.324 268.897C245.394 268.967 245.434 269.06 245.436 269.159C245.436 269.258 245.396 269.353 245.326 269.423C245.256 269.493 245.161 269.532 245.062 269.532Z" fill="#3E435D"/>
<path d="M219.992 279.985H208.524C208.425 279.985 208.33 279.945 208.26 279.875C208.19 279.805 208.151 279.71 208.151 279.611C208.151 279.512 208.19 279.417 208.26 279.347C208.33 279.277 208.425 279.238 208.524 279.238H219.992C220.091 279.238 220.186 279.277 220.256 279.347C220.326 279.417 220.365 279.512 220.365 279.611C220.365 279.71 220.326 279.805 220.256 279.875C220.186 279.945 220.091 279.985 219.992 279.985Z" fill="#3E435D"/>
<path d="M226.927 285.83H214.922C214.823 285.83 214.728 285.791 214.658 285.721C214.588 285.651 214.549 285.556 214.549 285.457C214.551 285.359 214.591 285.265 214.66 285.195C214.73 285.126 214.824 285.086 214.922 285.084H226.927C227.026 285.086 227.12 285.126 227.189 285.195C227.259 285.265 227.299 285.359 227.301 285.457C227.301 285.556 227.261 285.651 227.191 285.721C227.121 285.791 227.026 285.83 226.927 285.83Z" fill="#3E435D"/>
<path d="M246.361 334.053C245.999 334.053 245.652 333.909 245.395 333.653C245.139 333.397 244.995 333.049 244.995 332.687V332.627C244.995 332.265 245.139 331.917 245.395 331.661C245.652 331.405 245.999 331.261 246.361 331.261H377.441V331.298H460.246C462.529 331.296 464.79 331.744 466.9 332.616C469.01 333.488 470.928 334.767 472.543 336.381C474.158 337.994 475.44 339.91 476.315 342.019C477.19 344.128 477.641 346.388 477.642 348.671C477.641 350.955 477.19 353.216 476.315 355.325C475.44 357.434 474.159 359.35 472.543 360.964C470.928 362.578 469.011 363.858 466.901 364.731C464.791 365.604 462.529 366.053 460.246 366.052H379.442H246.361C245.999 366.052 245.652 365.908 245.395 365.652C245.139 365.396 244.995 365.048 244.995 364.686C245.004 364.314 245.147 363.957 245.398 363.683C245.649 363.408 245.992 363.234 246.361 363.193H248.444V334.001L246.361 334.053Z" fill="#C97805"/>
<path d="M359.702 334.105V334.486C362.847 335.246 365.646 337.043 367.647 339.586C369.648 342.129 370.736 345.271 370.736 348.507V348.791C370.745 352.034 369.661 355.186 367.659 357.738C365.657 360.29 362.854 362.093 359.702 362.857V363.26H247.765V334.143L359.702 334.105Z" fill="white"/>
<path d="M359.702 363.603H247.765C247.666 363.603 247.571 363.564 247.501 363.494C247.431 363.424 247.392 363.329 247.392 363.23V334.113C247.392 334.014 247.431 333.919 247.501 333.849C247.571 333.779 247.666 333.739 247.765 333.739H359.702C359.801 333.739 359.896 333.779 359.966 333.849C360.036 333.919 360.075 334.014 360.075 334.113V334.225C363.242 335.048 366.044 336.901 368.042 339.492C370.04 342.083 371.119 345.265 371.11 348.537V348.821C371.119 352.092 370.04 355.274 368.042 357.865C366.044 360.456 363.242 362.31 360.075 363.133V363.245C360.071 363.341 360.03 363.432 359.961 363.499C359.891 363.566 359.798 363.603 359.702 363.603ZM248.138 362.857H359.329C359.329 362.773 359.357 362.692 359.408 362.626C359.46 362.559 359.531 362.512 359.612 362.491C362.681 361.759 365.412 360.012 367.364 357.534C369.315 355.055 370.372 351.99 370.363 348.836V348.552C370.372 345.397 369.315 342.332 367.364 339.854C365.412 337.375 362.681 335.628 359.612 334.897C359.531 334.875 359.46 334.828 359.408 334.762C359.357 334.696 359.329 334.614 359.329 334.531H248.138V362.857Z" fill="#3E435D"/>
<path d="M370.737 348.813V348.529C370.742 345.289 369.656 342.142 367.654 339.594C365.653 337.047 362.851 335.247 359.702 334.486V334.083H460.171C463.997 334.083 467.666 335.602 470.371 338.308C473.076 341.013 474.596 344.681 474.596 348.507V348.791C474.596 352.616 473.076 356.285 470.371 358.99C467.666 361.695 463.997 363.215 460.171 363.215H359.702V362.857C362.851 362.094 365.651 360.294 367.653 357.747C369.654 355.2 370.741 352.053 370.737 348.813Z" fill="#C97805"/>
<path d="M460.171 363.603H359.702C359.603 363.603 359.508 363.564 359.438 363.494C359.368 363.424 359.329 363.329 359.329 363.23V362.857C359.329 362.773 359.357 362.692 359.408 362.626C359.46 362.559 359.531 362.512 359.612 362.491C362.681 361.759 365.412 360.012 367.364 357.534C369.315 355.055 370.372 351.99 370.363 348.836V348.552C370.372 345.397 369.315 342.332 367.364 339.854C365.412 337.375 362.681 335.628 359.612 334.897C359.531 334.875 359.46 334.828 359.408 334.762C359.357 334.696 359.329 334.614 359.329 334.531V334.128C359.329 334.029 359.368 333.934 359.438 333.864C359.508 333.794 359.603 333.754 359.702 333.754H460.171C464.095 333.758 467.856 335.319 470.63 338.093C473.404 340.867 474.965 344.628 474.969 348.552V348.836C474.957 352.754 473.393 356.508 470.62 359.275C467.846 362.043 464.089 363.599 460.171 363.603ZM360.949 362.857H460.171C463.897 362.853 467.468 361.371 470.102 358.737C472.737 356.103 474.218 352.531 474.222 348.806V348.522C474.214 344.799 472.731 341.231 470.097 338.6C467.463 335.969 463.894 334.49 460.171 334.486H360.949C363.908 335.456 366.484 337.338 368.309 339.862C370.133 342.386 371.111 345.423 371.102 348.537V348.821C371.107 351.932 370.128 354.966 368.304 357.487C366.48 360.008 363.906 361.888 360.949 362.857Z" fill="#3E435D"/>
<path d="M363.756 340.317H355.588C355.489 340.317 355.394 340.278 355.324 340.208C355.254 340.138 355.215 340.043 355.215 339.944C355.215 339.845 355.254 339.75 355.324 339.68C355.394 339.61 355.489 339.57 355.588 339.57H363.756C363.855 339.57 363.95 339.61 364.02 339.68C364.09 339.75 364.129 339.845 364.129 339.944C364.129 340.043 364.09 340.138 364.02 340.208C363.95 340.278 363.855 340.317 363.756 340.317Z" fill="#3E435D"/>
<path d="M368.923 344.849H316.661C316.562 344.849 316.467 344.809 316.397 344.739C316.327 344.669 316.288 344.574 316.288 344.475C316.288 344.376 316.327 344.281 316.397 344.211C316.467 344.141 316.562 344.102 316.661 344.102H368.923C369.021 344.104 369.115 344.144 369.184 344.214C369.254 344.283 369.294 344.377 369.296 344.475C369.296 344.574 369.257 344.669 369.187 344.739C369.117 344.809 369.022 344.849 368.923 344.849Z" fill="#3E435D"/>
<path d="M368.415 351.254H361.987C361.888 351.254 361.793 351.215 361.723 351.145C361.653 351.075 361.613 350.98 361.613 350.881C361.613 350.782 361.653 350.687 361.723 350.617C361.793 350.547 361.888 350.508 361.987 350.508H368.415C368.514 350.508 368.609 350.547 368.679 350.617C368.749 350.687 368.788 350.782 368.788 350.881C368.788 350.98 368.749 351.075 368.679 351.145C368.609 351.215 368.514 351.254 368.415 351.254Z" fill="#3E435D"/>
<path d="M284.654 338.966H255.052C254.953 338.966 254.858 338.926 254.788 338.856C254.718 338.786 254.679 338.691 254.679 338.592C254.679 338.493 254.718 338.398 254.788 338.328C254.858 338.258 254.953 338.219 255.052 338.219H284.654C284.754 338.219 284.848 338.258 284.918 338.328C284.988 338.398 285.028 338.493 285.028 338.592C285.026 338.691 284.986 338.784 284.916 338.854C284.847 338.924 284.753 338.964 284.654 338.966Z" fill="#3E435D"/>
<path d="M259.584 349.418H248.116C248.017 349.418 247.922 349.379 247.852 349.309C247.782 349.239 247.743 349.144 247.743 349.045C247.743 348.946 247.782 348.851 247.852 348.781C247.922 348.711 248.017 348.671 248.116 348.671H259.584C259.683 348.671 259.778 348.711 259.848 348.781C259.918 348.851 259.957 348.946 259.957 349.045C259.957 349.144 259.918 349.239 259.848 349.309C259.778 349.379 259.683 349.418 259.584 349.418Z" fill="#3E435D"/>
<path d="M266.519 355.256H254.514C254.416 355.254 254.322 355.214 254.252 355.145C254.182 355.075 254.143 354.981 254.141 354.883C254.141 354.784 254.18 354.689 254.25 354.619C254.32 354.549 254.415 354.51 254.514 354.51H266.519C266.618 354.51 266.713 354.549 266.783 354.619C266.853 354.689 266.892 354.784 266.892 354.883C266.891 354.981 266.851 355.075 266.781 355.145C266.711 355.214 266.618 355.254 266.519 355.256Z" fill="#3E435D"/>
<path d="M611 40H371V183H611V40Z" fill="white" stroke="#263238" stroke-linecap="round" stroke-linejoin="round"/>
<path d="M611 17H243V33H611V17Z" fill="#263238"/>
<path d="M468.08 130.52L462.46 122.7C462.459 121.067 462.375 119.435 462.21 117.81C462 117.08 458.59 111.71 458.51 110.44C458.497 109.834 458.42 109.23 458.28 108.64C458.28 108.64 456.53 109.08 456.55 110.15C456.57 111.22 456.76 114.83 456.76 114.83C456.76 114.83 452.2 112.17 451.69 111.47C451.18 110.77 445.62 106.69 445.1 106.08C444.58 105.47 442.46 105.43 442.21 106.08L442.51 106.83L440.76 107.66L441.93 111.13C441.595 111.911 441.392 112.742 441.33 113.59C441.52 114.02 442.14 116.59 442.14 116.59C442.14 116.59 441.76 116.98 441.81 118.34C441.86 119.7 449.33 126.65 450.81 127.4C452.577 128.143 454.387 128.78 456.23 129.31L460.92 135.38L468.08 130.52Z" fill="#D28572" stroke="#263238" stroke-linecap="round" stroke-linejoin="round"/>
<path d="M456.75 114.83C455.877 116.817 455.653 119.028 456.11 121.15" stroke="#263238" stroke-linecap="round" stroke-linejoin="round"/>
<path d="M442.5 106.83C444.01 107.41 445.9 110.23 446.77 111.1C447.557 111.81 448.4 112.455 449.29 113.03" stroke="#263238" stroke-linecap="round" stroke-linejoin="round"/>
<path d="M441.92 111.1C443.16 110.84 444 111.32 443.97 112.53C443.94 113.74 446.62 115.58 446.62 115.58" stroke="#263238" stroke-linecap="round" stroke-linejoin="round"/>
<path d="M442.13 116.56C442.13 116.56 443 115.01 443.69 115.72C444.38 116.43 444.6 118.25 445.87 118.63" stroke="#263238" stroke-linecap="round" stroke-linejoin="round"/>
<path d="M541.16 122.02C541.16 122.02 521.43 123.24 517.08 125.02C513.51 126.49 488.4 143.02 488.4 143.02C488.4 143.02 473.63 131.88 469.34 128.02C468.513 127.62 467.623 127.363 466.71 127.26L464.46 125.83L458.93 133.62L460.48 135.77C460.48 135.77 460.73 139.24 461.42 140.11C470.6 151.64 488.18 167.78 490.82 169.37C493.46 170.96 516.88 157.1 516.88 157.1L521.23 182.6H591.08C591.08 182.6 590.9 137.85 587.96 134.42C585.02 130.99 551.32 117.54 551.32 117.54L541.16 122.02Z" fill="#09328B" stroke="#263238" stroke-linecap="round" stroke-linejoin="round"/>
<path d="M564.75 105.83C564.75 105.83 558.49 110.03 561.81 123.45C561.81 123.45 552.38 130.19 543.05 123.39C543.05 123.39 545.2 112.69 543.05 110.54" fill="#D28572"/>
<path d="M564.75 105.83C564.75 105.83 558.49 110.03 561.81 123.45C561.81 123.45 552.38 130.19 543.05 123.39C543.05 123.39 545.2 112.69 543.05 110.54" stroke="#263238" stroke-linecap="round" stroke-linejoin="round"/>
<path d="M586.71 136.5C586.71 136.5 578.2 146.29 577.21 163.05" stroke="#263238" stroke-linecap="round" stroke-linejoin="round"/>
<path d="M549.26 78.94C549.26 78.94 543.68 78.1 541.73 84.94C540.594 89.1291 541.054 93.5905 543.02 97.46L553.28 87.83L549.26 78.94Z" fill="#263238"/>
<path d="M562.84 109.91C570.03 101.33 575.11 87.03 564.31 81.32C543.47 70.3 536.58 91.83 540.08 111.83C541.16 118 549.54 115.25 555.67 113.02" fill="#D28572"/>
<path d="M562.84 109.91C570.03 101.33 575.11 87.03 564.31 81.32C543.47 70.3 536.58 91.83 540.08 111.83C541.16 118 549.54 115.25 555.67 113.02" stroke="#263238" stroke-linecap="round" stroke-linejoin="round"/>
<path d="M548.28 91.26C548.28 91.26 551.72 92.19 552.59 94.03" stroke="#263238" stroke-linecap="round" stroke-linejoin="round"/>
<path d="M543.3 90.35C542.894 90.1503 542.444 90.0583 541.992 90.0828C541.54 90.1073 541.102 90.2475 540.72 90.49" stroke="#263238" stroke-linecap="round" stroke-linejoin="round"/>
<path d="M548.22 96C548.16 96.61 548.43 97.14 548.82 97.18C549.21 97.22 549.58 96.75 549.64 96.18C549.7 95.61 549.43 95.03 549.04 94.99C548.65 94.95 548.28 95.38 548.22 96Z" fill="#263238"/>
<path d="M540.76 94.15C540.71 94.77 540.98 95.3 541.37 95.34C541.76 95.38 542.13 94.91 542.19 94.34C542.25 93.77 541.98 93.2 541.58 93.16C541.18 93.12 540.82 93.54 540.76 94.15Z" fill="#263238"/>
<path d="M559.63 100.01C559.63 100.01 556.4 104.69 554.23 106.19C552.828 107.088 551.139 107.424 549.5 107.13C549.5 107.13 546.73 103.71 542.69 103.66C541.644 102.994 540.455 102.586 539.22 102.47L539.45 97.25C539.45 97.25 536.38 108.44 536.67 112.45C536.96 116.46 546.82 119.24 551.75 118.12C556.68 117 559.19 109.33 560.69 102.12C560.8 101.52 559.63 100.01 559.63 100.01Z" fill="#263238"/>
<path d="M539.82 106.24C539.82 106.24 543.72 108.11 547.19 107.67" stroke="#D28572" stroke-linecap="round" stroke-linejoin="round"/>
<path d="M562.86 85.75C564.14 84.75 560.86 80.45 559.02 80.54C557.18 80.63 548.15 80.97 548.15 80.97C548.15 80.97 546.25 71.03 561.45 76.4C563.94 77.28 564.74 79.61 566.97 80.8C569.2 81.99 572.22 88.25 571.36 93.59C570.5 98.93 567.65 108.3 562.48 111.11C562.48 111.11 560.7 110.93 561.78 109.7C566.87 103.97 561.54 93.19 560.69 102.1L558.9 101.03C558.886 100.052 558.987 99.0749 559.2 98.12C559.58 95.67 556.87 90.66 562.86 85.75Z" fill="#263238"/>
<path d="M562.08 99.36C562.08 99.36 565.35 95.48 567.33 96.8C569.31 98.12 567.98 102.8 566.92 103.97C565.86 105.14 565 105.4 563.53 107.27C562.06 109.14 560.21 108.51 560.53 107.01" fill="#D28572"/>
<path d="M562.08 99.36C562.08 99.36 565.35 95.48 567.33 96.8C569.31 98.12 567.98 102.8 566.92 103.97C565.86 105.14 565 105.4 563.53 107.27C562.06 109.14 560.21 108.51 560.53 107.01" stroke="#263238" stroke-linecap="round" stroke-linejoin="round"/>
<path d="M552.08 96.5C552.19 98.67 550.87 100.5 549.08 100.59C547.29 100.68 545.83 99 545.72 96.83C545.61 94.66 546.93 92.83 548.72 92.74C550.51 92.65 551.95 94.33 552.08 96.5Z" stroke="#263238" stroke-width="0.5" stroke-miterlimit="10"/>
<path d="M542.86 94.53C542.98 96.7 541.65 98.53 539.91 98.63C538.17 98.73 536.66 97.03 536.54 94.86C536.42 92.69 537.76 90.86 539.54 90.77C541.32 90.68 542.75 92.36 542.86 94.53Z" stroke="#263238" stroke-width="0.5" stroke-miterlimit="10"/>
<path d="M543.81 92.67C543.81 93.67 538.63 99.58 538.57 100.88C538.51 102.18 543.39 102.26 543.39 102.26" fill="#D28572"/>
<path d="M543.81 92.67C543.81 93.67 538.63 99.58 538.57 100.88C538.51 102.18 543.39 102.26 543.39 102.26" stroke="#263238" stroke-linecap="round" stroke-linejoin="round"/>
<path d="M542.86 94.53C542.86 94.53 544.41 94.14 545.71 96.23" stroke="#263238" stroke-width="0.5" stroke-miterlimit="10"/>
<path d="M552.1 97.26L553.78 97.51L563.21 98.17" stroke="#263238" stroke-width="0.5" stroke-miterlimit="10"/>
<path d="M580.8 141.83L578.92 139.5C578.92 139.5 563.08 141.31 556.08 150.75C556.08 150.75 543.08 144.61 531.38 147.6L531.04 151.79L556.63 167.1L566.63 162.94L580.8 141.83Z" fill="white" stroke="#263238" stroke-linecap="round" stroke-linejoin="round"/>
<path d="M583.37 140.42L580.67 158.42C580.67 158.42 565.77 164.96 562.67 170.22L561.93 170.32L558.43 170.81L556.54 170.25C551.915 168.904 547.204 167.875 542.44 167.17C540.786 166.915 539.108 166.851 537.44 166.98L527.36 151.27C527.36 151.27 542.95 149.11 553.73 152.8L558.89 152.44L559.08 152.28C560.63 151.01 571.49 142.38 583.37 140.42Z" fill="white"/>
<mask id="mask0_2223_7362" style="mask-type:luminance" maskUnits="userSpaceOnUse" x="527" y="140" width="57" height="31">
<path d="M583.37 140.42L580.67 158.42C580.67 158.42 565.77 164.96 562.67 170.22L561.93 170.32L558.43 170.81L556.54 170.25C551.915 168.904 547.204 167.875 542.44 167.17C540.786 166.915 539.108 166.851 537.44 166.98L527.36 151.27C527.36 151.27 542.95 149.11 553.73 152.8L558.89 152.44L559.08 152.28C560.63 151.01 571.49 142.38 583.37 140.42Z" fill="white"/>
</mask>
<g mask="url(#mask0_2223_7362)">
<path opacity="0.3" d="M561.73 166.12L559.08 152.27C560.62 151.01 571.48 142.38 583.36 140.42L580.66 158.42C580.66 158.42 565.76 164.96 562.66 170.22L561.92 170.32L561.73 166.12Z" fill="black" fill-opacity="0.7"/>
<path opacity="0.3" d="M556.6 167.1L556.53 170.24C551.905 168.894 547.194 167.865 542.43 167.16C542.641 163.984 543.883 160.963 545.968 158.557C548.053 156.151 550.866 154.491 553.98 153.83L556.6 167.1Z" fill="black" fill-opacity="0.7"/>
</g>
<path d="M583.37 140.42L580.67 158.42C580.67 158.42 565.77 164.96 562.67 170.22L561.93 170.32L558.43 170.81L556.54 170.25C551.915 168.904 547.204 167.875 542.44 167.17C540.786 166.915 539.108 166.851 537.44 166.98L527.36 151.27C527.36 151.27 542.95 149.11 553.73 152.8L558.89 152.44L559.08 152.28C560.63 151.01 571.49 142.38 583.37 140.42Z" stroke="#263238" stroke-linecap="round" stroke-linejoin="round"/>
<path d="M561.67 174.61C556.33 174.27 546.17 166.09 546.17 166.09C545.559 164.564 544.7 163.148 543.63 161.9C542.18 160.45 544.11 159.24 544.11 159.24C544.11 159.24 542.42 158.15 541.46 157.55C540.5 156.95 542.18 155.37 542.18 155.37C542.18 155.37 549.43 156.37 550.18 156.1C550.93 155.83 557.89 160.33 558.97 160.45C560.437 160.477 561.883 160.1 563.15 159.36C563.87 158.76 566.1 155.01 567.55 154.28C569 153.55 571.55 153.56 570.33 155.13C569.11 156.7 569.33 160.2 568.73 160.69C568.13 161.18 567.14 166.44 567.14 168.25L575.04 175.47L570.54 181.6L561.67 174.61Z" fill="#D28572" stroke="#263238" stroke-linecap="round" stroke-linejoin="round"/>
<path d="M544.08 159.24C545.5 159.399 546.885 159.787 548.18 160.39" stroke="#263238" stroke-linecap="round" stroke-linejoin="round"/>
<path d="M549.46 162.1C549.46 162.1 549.01 163.93 548.89 164.21C548.77 164.49 550.38 166.28 550.15 167.1C549.92 167.92 551.78 170.1 551.78 170.1" stroke="#263238" stroke-linecap="round" stroke-linejoin="round"/>
<path d="M547.64 164.21C546.251 163.542 544.913 162.769 543.64 161.9" stroke="#263238" stroke-linecap="round" stroke-linejoin="round"/>
<path d="M543.77 118.67L547.23 125.64L561.45 117.76L564.58 124.74L550.07 133.95L547.28 126.74L541.64 132.17L539.73 123.39L543.77 118.67Z" fill="#0B2661" stroke="#263238" stroke-linecap="round" stroke-linejoin="round"/>
<path d="M588 134.39C591.45 138.08 603.72 165.14 604.9 182.57H567.52V181.01L563.44 178.62C563.44 178.62 565.97 169.72 573.18 171.11L575.28 174.11L579.93 177.61C579.93 177.61 588.09 177.82 590.46 180.17" fill="#09328B"/>
<path d="M588 134.39C591.45 138.08 603.72 165.14 604.9 182.57H567.52V181.01L563.44 178.62C563.44 178.62 565.97 169.72 573.18 171.11L575.28 174.11L579.93 177.61C579.93 177.61 588.09 177.82 590.46 180.17" stroke="#263238" stroke-linecap="round" stroke-linejoin="round"/>
<path d="M579.93 177.65C579.93 177.65 584.46 171.12 591.12 173.88" stroke="#263238" stroke-linecap="round" stroke-linejoin="round"/>
<path d="M578.2 167.1C579.654 169.799 580.95 172.58 582.08 175.43" stroke="#263238" stroke-linecap="round" stroke-linejoin="round"/>
<path d="M516.88 157.07C516.88 157.07 514.11 140.93 514.88 135.35Z" fill="#757575"/>
<path d="M516.88 157.07C516.88 157.07 514.11 140.93 514.88 135.35" stroke="#263238" stroke-linecap="round" stroke-linejoin="round"/>
<path d="M511.34 141.64C511.34 141.64 512.88 149.57 516.34 153.82Z" fill="#757575"/>
<path d="M511.34 141.64C511.34 141.64 512.88 149.57 516.34 153.82" stroke="#263238" stroke-linecap="round" stroke-linejoin="round"/>
<path d="M488.4 143.03C488.4 143.03 492.75 146.63 489.98 155.61Z" fill="#757575"/>
<path d="M488.4 143.03C488.4 143.03 492.75 146.63 489.98 155.61" stroke="#263238" stroke-linecap="round" stroke-linejoin="round"/>
<path d="M546.57 132.45C546.57 132.636 546.515 132.818 546.411 132.973C546.307 133.128 546.16 133.249 545.987 133.319C545.815 133.39 545.625 133.408 545.443 133.371C545.26 133.334 545.093 133.244 544.962 133.111C544.831 132.979 544.742 132.81 544.707 132.627C544.672 132.444 544.692 132.255 544.764 132.083C544.837 131.912 544.959 131.766 545.115 131.664C545.271 131.561 545.454 131.508 545.64 131.51C545.763 131.51 545.885 131.534 545.998 131.582C546.112 131.629 546.215 131.699 546.301 131.786C546.388 131.873 546.456 131.977 546.502 132.091C546.548 132.205 546.571 132.327 546.57 132.45Z" fill="#263238"/>
<path d="M544.11 146.21C544.629 146.21 545.05 145.789 545.05 145.27C545.05 144.751 544.629 144.33 544.11 144.33C543.591 144.33 543.17 144.751 543.17 145.27C543.17 145.789 543.591 146.21 544.11 146.21Z" fill="#263238"/>
<path d="M542.69 175.08C543.209 175.08 543.63 174.659 543.63 174.14C543.63 173.621 543.209 173.2 542.69 173.2C542.171 173.2 541.75 173.621 541.75 174.14C541.75 174.659 542.171 175.08 542.69 175.08Z" fill="#263238"/>
<path d="M389.64 138.62C390.702 137.664 391.894 136.863 393.18 136.24C393.232 136.561 393.405 136.85 393.664 137.047C393.922 137.244 394.247 137.335 394.57 137.3C395.28 137.19 396.08 136.49 396.57 137C396.77 137.2 396.81 137.52 397.02 137.71C397.66 138.3 398.75 137.03 399.47 137.51C399.66 137.64 399.76 137.86 399.96 137.99C400.118 138.058 400.288 138.093 400.46 138.093C400.632 138.093 400.802 138.058 400.96 137.99C402.746 137.583 404.58 137.425 406.41 137.52L414.8 137.58L414.16 137.25" stroke="#263238" stroke-linecap="round" stroke-linejoin="round"/>
<path d="M389.19 145.62C389.26 145.291 389.443 144.998 389.706 144.789C389.97 144.581 390.298 144.472 390.634 144.48C390.97 144.489 391.292 144.614 391.545 144.835C391.798 145.056 391.966 145.358 392.02 145.69C392.228 145.593 392.413 145.454 392.565 145.282C392.716 145.11 392.83 144.908 392.9 144.69C393.44 145.9 395.11 146 396.44 145.91L402.37 145.49C404.15 145.36 406.23 145.04 407.03 143.49C407.909 145.094 408.259 146.935 408.03 148.75C408.58 147.444 409.296 146.214 410.16 145.09C410.34 145.73 410.52 146.37 410.69 147.01C414.82 144.12 420.47 146.01 425.47 145.38" stroke="#263238" stroke-linecap="round" stroke-linejoin="round"/>
<path d="M389.72 154.89C389.701 154.706 389.751 154.522 389.86 154.372C389.969 154.222 390.129 154.118 390.31 154.08C390.366 154.261 390.459 154.429 390.582 154.574C390.706 154.718 390.857 154.835 391.028 154.919C391.198 155.002 391.384 155.05 391.574 155.058C391.763 155.067 391.953 155.037 392.13 154.97C392.844 154.67 393.455 154.17 393.89 153.53C394.039 153.651 394.212 153.739 394.398 153.788C394.584 153.836 394.778 153.845 394.967 153.813C395.156 153.78 395.337 153.708 395.496 153.601C395.655 153.494 395.789 153.353 395.89 153.19C396.336 153.912 396.705 154.68 396.99 155.48C397.53 154.1 399.36 153.88 400.85 153.89H412.85" stroke="#263238" stroke-linecap="round" stroke-linejoin="round"/>
<path d="M482.48 46.05C479.615 45.9805 476.806 46.8477 474.48 48.52C471.6 50.36 468.86 53.46 469.58 56.8C470.3 60.14 474.24 61.91 477.71 62.58C480.694 63.1611 483.73 63.4293 486.77 63.38C487.94 63.3976 489.109 63.2734 490.25 63.01C491.403 62.6833 492.522 62.2445 493.59 61.7L501.33 58.06C502.39 57.56 503.58 56.92 503.87 55.78C504.23 54.37 503.02 53.06 501.87 52.21C497.526 49.103 492.168 47.7527 486.87 48.43" stroke="#263238" stroke-linecap="round" stroke-linejoin="round"/>
<path d="M473.29 53.53C473.745 53.0189 474.334 52.6449 474.99 52.45C474.86 52.8325 474.86 53.2475 474.99 53.63C475.17 53.99 475.72 54.17 475.99 53.87C476.26 53.57 476.32 53.09 476.62 53.24L476.98 54.04C477.47 53.87 477.85 53.47 478.33 53.26C478.877 53.0766 479.459 53.0219 480.03 53.1C484.324 53.3204 488.628 53.19 492.9 52.71" stroke="#263238" stroke-linecap="round" stroke-linejoin="round"/>
<path d="M480.29 57.83C480.352 57.6256 480.462 57.4387 480.609 57.2842C480.757 57.1297 480.939 57.0118 481.14 56.94C480.91 57.19 481.19 57.62 481.53 57.68C481.875 57.6862 482.217 57.6144 482.53 57.47C482.909 57.372 483.298 57.3184 483.69 57.31L490.98 56.81" stroke="#263238" stroke-linecap="round" stroke-linejoin="round"/>
<path d="M483.4 67.99C481.291 75.5067 476.918 82.1913 470.876 87.1349C464.834 92.0786 457.415 95.0412 449.63 95.62" stroke="#263238" stroke-linecap="round" stroke-linejoin="round"/>
<path d="M449.75 93.45C448.336 94.3238 447.075 95.4253 446.02 96.71C446.644 96.5793 447.292 96.6241 447.892 96.8395C448.493 97.0548 449.021 97.4323 449.42 97.93" stroke="#263238" stroke-linecap="round" stroke-linejoin="round"/>
<path d="M481 95.83L481.91 97.83L483.21 96.29C483.453 96.4714 483.624 96.7339 483.69 97.03C483.79 97.31 483.94 97.62 484.22 97.7C484.5 97.78 484.85 97.4 484.64 97.19C484.824 97.3146 485.033 97.3978 485.252 97.4341C485.471 97.4703 485.696 97.4587 485.91 97.4C486.1 97.4 486.27 97.26 486.46 97.21C486.686 97.1604 486.918 97.1402 487.15 97.15H500.66" stroke="#263238" stroke-linecap="round" stroke-linejoin="round"/>
<path d="M481.63 106.83C481.694 106.67 481.797 106.529 481.932 106.421C482.066 106.312 482.226 106.241 482.396 106.213C482.566 106.184 482.74 106.201 482.902 106.26C483.064 106.319 483.208 106.419 483.32 106.55C483.364 106.678 483.432 106.797 483.52 106.9C483.64 106.985 483.788 107.022 483.934 107.003C484.08 106.985 484.215 106.912 484.31 106.8C484.53 106.6 484.67 106.33 484.9 106.15C485.53 105.66 486.43 106.04 487.2 106.25C488.186 106.456 489.198 106.51 490.2 106.41L497.87 106.01" stroke="#263238" stroke-linecap="round" stroke-linejoin="round"/>
<path d="M481.87 115.33C482.125 115.337 482.375 115.258 482.58 115.105C482.785 114.953 482.933 114.736 483 114.49C483.127 114.511 483.245 114.571 483.337 114.66C483.43 114.749 483.494 114.864 483.52 114.99C483.887 114.763 484.201 114.459 484.44 114.1C489.38 114.16 494.327 114.16 499.28 114.1" stroke="#263238" stroke-linecap="round" stroke-linejoin="round"/>
<path d="M481.86 121.68C482.166 121.807 482.508 121.815 482.82 121.704C483.132 121.594 483.392 121.371 483.55 121.08C483.863 121.334 484.082 121.686 484.17 122.08C484.367 121.946 484.59 121.855 484.824 121.812C485.058 121.769 485.298 121.775 485.53 121.83C485.72 121.83 485.91 121.96 486.1 122.01C486.58 122.133 487.076 122.177 487.57 122.14L504.81 121.89" stroke="#263238" stroke-linecap="round" stroke-linejoin="round"/>
<path d="M456.35 159.43L458.26 159.48C457.916 160.779 457.373 162.017 456.65 163.15C456.39 163.5 456.08 163.94 456.27 164.33C457.27 164.49 458.44 164.58 459.07 163.81C459.89 162.81 459.17 161.24 459.79 160.12L460.03 162.49L460.86 163.28C461.076 163.521 461.347 163.707 461.65 163.82C461.802 163.873 461.967 163.872 462.118 163.817C462.269 163.763 462.397 163.658 462.48 163.52" stroke="#263238" stroke-linecap="round" stroke-linejoin="round"/>
<path d="M386.183 78.99L394.013 78.23C394.089 78.24 394.166 78.2308 394.238 78.203C394.31 78.1753 394.374 78.13 394.423 78.0713C394.473 78.0126 394.507 77.9424 394.523 77.867C394.539 77.7917 394.535 77.7136 394.513 77.64V72.64C394.532 72.4739 394.489 72.3066 394.393 72.17C394.328 72.1113 394.252 72.066 394.17 72.0369C394.087 72.0077 394 71.9951 393.913 72C392.213 71.85 388.383 71 386.913 72.15C385.443 73.3 386.193 77.28 386.183 78.99Z" stroke="#263238" stroke-linecap="round" stroke-linejoin="round"/>
<path d="M388.422 74.53C388.522 75 388.612 75.47 388.712 75.95C389.899 75.7023 391.116 75.6382 392.322 75.76" stroke="#263238" stroke-linecap="round" stroke-linejoin="round"/>
<path d="M392.412 81.15C392.339 81.2627 392.299 81.3936 392.296 81.5279C392.293 81.6623 392.328 81.7947 392.397 81.9102C392.466 82.0257 392.565 82.1196 392.685 82.1815C392.804 82.2433 392.938 82.2705 393.072 82.26C393.602 82.16 394.022 81.45 394.512 81.67" stroke="#263238" stroke-linecap="round" stroke-linejoin="round"/>
<path d="M387.022 69.62C387.121 69.4711 387.261 69.3542 387.426 69.2836C387.59 69.2131 387.771 69.1919 387.947 69.2226C388.123 69.2534 388.287 69.3348 388.417 69.4569C388.548 69.5789 388.64 69.7364 388.682 69.91L390.562 69.69" stroke="#263238" stroke-linecap="round" stroke-linejoin="round"/>
<path d="M402.622 86.2C405.289 86.2 407.956 86.2 410.622 86.2C412.695 86.2272 414.768 86.1035 416.822 85.83C417.053 85.8175 417.272 85.7256 417.442 85.57C417.584 85.3659 417.645 85.1164 417.612 84.87V72.71C417.612 72.57 405.362 72.18 403.932 73.17C401.052 75.19 402.622 83.09 402.622 86.2Z" stroke="#263238" stroke-linecap="round" stroke-linejoin="round"/>
<path d="M412.522 88.24C413.152 88.01 413.412 89.19 414.062 89.36C414.712 89.53 415.062 88.67 415.612 88.29C415.873 88.117 416.188 88.044 416.499 88.0844C416.809 88.1249 417.094 88.276 417.302 88.51" stroke="#263238" stroke-linecap="round" stroke-linejoin="round"/>
<path d="M407.362 69C407.962 69.15 407.722 70.15 408.172 70.58C408.622 71.01 409.372 70.58 409.882 70.17C410.392 69.76 411.322 69.58 411.512 70.17" stroke="#263238" stroke-linecap="round" stroke-linejoin="round"/>
<path d="M610.64 182.34H371V199.26H610.64V182.34Z" fill="#BFBFBF" stroke="#263238" stroke-linecap="round" stroke-linejoin="round"/>
<path d="M566.3 189H409.72V192.6H566.3V189Z" fill="#263238"/>
<path d="M498.52 190.83C498.52 191.35 498.366 191.859 498.077 192.291C497.788 192.724 497.377 193.061 496.896 193.26C496.416 193.459 495.887 193.511 495.377 193.409C494.867 193.308 494.398 193.058 494.03 192.69C493.662 192.322 493.412 191.853 493.31 191.343C493.209 190.833 493.261 190.304 493.46 189.824C493.659 189.343 493.996 188.932 494.429 188.643C494.861 188.354 495.37 188.2 495.89 188.2C496.587 188.2 497.256 188.477 497.749 188.97C498.243 189.464 498.52 190.132 498.52 190.83Z" fill="white" stroke="#263238" stroke-linecap="round" stroke-linejoin="round"/>
<path d="M602.88 187.56H596.4V194.04H602.88V187.56Z" stroke="#263238" stroke-linecap="round" stroke-linejoin="round"/>
<path d="M592.01 187.56H585.53V194.04H592.01V187.56Z" stroke="#263238" stroke-linecap="round" stroke-linejoin="round"/>
<path d="M389.71 187.49H378.42V194.11H389.71V187.49Z" stroke="#263238" stroke-linecap="round" stroke-linejoin="round"/>
<path d="M534 25H600" stroke="white" stroke-linecap="round" stroke-linejoin="round"/>
<path d="M277.78 25.03C277.782 25.5273 277.636 26.0139 277.361 26.4282C277.086 26.8425 276.694 27.1658 276.235 27.357C275.776 27.5482 275.27 27.5988 274.783 27.5022C274.295 27.4057 273.847 27.1664 273.495 26.8148C273.143 26.4632 272.904 26.015 272.808 25.5272C272.711 25.0394 272.762 24.5339 272.953 24.0748C273.144 23.6158 273.467 23.2239 273.882 22.9488C274.296 22.6738 274.782 22.528 275.28 22.53C275.943 22.53 276.579 22.7934 277.048 23.2622C277.516 23.7311 277.78 24.367 277.78 25.03Z" stroke="white" stroke-linecap="round" stroke-linejoin="round"/>
<path d="M267.89 25.18C267.89 25.6745 267.744 26.1578 267.469 26.5689C267.194 26.98 266.804 27.3005 266.347 27.4897C265.89 27.6789 265.387 27.7284 264.902 27.632C264.417 27.5355 263.972 27.2974 263.622 26.9478C263.273 26.5981 263.035 26.1527 262.938 25.6677C262.842 25.1828 262.891 24.6801 263.08 24.2233C263.27 23.7665 263.59 23.376 264.001 23.1013C264.412 22.8266 264.896 22.68 265.39 22.68C266.053 22.68 266.689 22.9434 267.158 23.4122C267.627 23.8811 267.89 24.517 267.89 25.18Z" stroke="white" stroke-linecap="round" stroke-linejoin="round"/>
<path d="M258 25.34C257.998 25.834 257.85 26.3164 257.574 26.7262C257.298 27.136 256.907 27.4549 256.45 27.6426C255.993 27.8302 255.49 27.8783 255.006 27.7807C254.522 27.6831 254.077 27.4443 253.729 27.0942C253.38 26.7442 253.143 26.2987 253.047 25.8141C252.952 25.3294 253.002 24.8272 253.191 24.371C253.381 23.9148 253.701 23.5249 254.112 23.2506C254.523 22.9764 255.006 22.83 255.5 22.83C255.829 22.83 256.155 22.895 256.459 23.0213C256.763 23.1475 257.039 23.3326 257.271 23.5658C257.504 23.799 257.688 24.0757 257.813 24.3802C257.938 24.6847 258.001 25.0109 258 25.34Z" stroke="white" stroke-linecap="round" stroke-linejoin="round"/>
<path d="M286.18 145.69L286.25 142.39L285.3 144.5L284.55 143.5V139L282.1 138.62L281.91 136.36L280.59 135.98V133.53L278.9 133.16V130.52L276.07 129.95L275.5 128.63L273.04 127.87L199.93 143.95L123.68 137.45C123.68 137.45 118.68 176.74 113.16 212.31C107.64 247.88 83.16 337.31 83.16 337.31L77.96 343.71L79.9 346.42L78.9 347.21L81.09 348.13L82.16 349.61L81.73 350.79L83.66 351.7L84.72 353.17L84.37 354.56L86.37 355.56L87.19 356.7L86.19 358.37L89.31 359.7L90.5 361.34L89.58 362.71L92.58 364.2L93.58 365.61L93 366.29H94.08L95.08 367.62C95.08 367.62 194.66 368.62 252.76 367.1C252.76 367.1 275.59 249.33 280.26 214.1C284.93 178.87 287.52 147.69 287.52 147.69L286.18 145.69Z" fill="white" stroke="#3E435D" stroke-linecap="round" stroke-linejoin="round"/>
<path d="M118.93 131C118.93 131 114.78 192.22 104.4 238.39C94.02 284.56 78 343.67 78 343.67C78 343.67 176.39 345.06 234.49 343.51C234.49 343.51 261.16 229.51 265.82 194.26C270.48 159.01 273.09 127.86 273.09 127.86C273.09 127.86 134 133.56 118.93 131Z" fill="#09328B" stroke="#3E435D" stroke-linecap="round" stroke-linejoin="round"/>
<path d="M89.25 353.8L152.56 356.57" stroke="#3E435D" stroke-linecap="round" stroke-linejoin="round"/>
<path d="M136.67 353.94L158.51 354.89" stroke="#3E435D" stroke-linecap="round" stroke-linejoin="round"/>
<path d="M217.15 360.21L182.01 360.4" stroke="#3E435D" stroke-linecap="round" stroke-linejoin="round"/>
<path d="M244.22 363.46L224.37 363.43" stroke="#3E435D" stroke-linecap="round" stroke-linejoin="round"/>
<path d="M239.19 350C239.19 350 244.89 359.69 250.59 365.38" stroke="#3E435D" stroke-linecap="round" stroke-linejoin="round"/>
<path d="M246.98 344.44L244.32 357.55L225.72 357.68" stroke="#3E435D" stroke-linecap="round" stroke-linejoin="round"/>
<path d="M250.78 337.22L246.79 354.32" stroke="#3E435D" stroke-linecap="round" stroke-linejoin="round"/>
<path d="M238.43 352.99L201.76 353.37" stroke="#3E435D" stroke-linecap="round" stroke-linejoin="round"/>
<path d="M280 143.63C280 143.63 275.26 193.78 273 209.93" stroke="#3E435D" stroke-linecap="round" stroke-linejoin="round"/>
<path d="M283.45 142.68L282.12 157.69" stroke="#3E435D" stroke-linecap="round" stroke-linejoin="round"/>
<path d="M271.3 193.21C271.3 193.21 267.69 222.28 264.3 239.57" stroke="#3E435D" stroke-linecap="round" stroke-linejoin="round"/>
<path d="M219.55 363.46H204.91" stroke="#3E435D" stroke-linecap="round" stroke-linejoin="round"/>
<path d="M89.0498 358.45C89.0498 358.45 128.37 360.37 129.52 360.37" stroke="#3E435D" stroke-linecap="round" stroke-linejoin="round"/>
<path d="M109.48 350.74L121.81 351.12" stroke="#3E435D" stroke-linecap="round" stroke-linejoin="round"/>
<path d="M264.27 283.67C264.27 283.67 255.4 329.92 252.7 341.49" stroke="#3E435D" stroke-linecap="round" stroke-linejoin="round"/>
<path d="M130 150.47C130.002 149.641 129.758 148.83 129.299 148.139C128.84 147.449 128.186 146.91 127.42 146.592C126.655 146.273 125.812 146.189 124.999 146.349C124.185 146.51 123.438 146.908 122.851 147.494C122.264 148.079 121.864 148.826 121.701 149.639C121.539 150.452 121.621 151.295 121.938 152.061C122.255 152.827 122.792 153.482 123.481 153.943C124.17 154.404 124.981 154.65 125.81 154.65C126.919 154.647 127.982 154.206 128.766 153.423C129.551 152.64 129.995 151.579 130 150.47Z" fill="white" stroke="#3E435D" stroke-linecap="round" stroke-linejoin="round"/>
<path d="M124.79 190.36C124.792 189.53 124.548 188.719 124.088 188.028C123.629 187.338 122.974 186.799 122.208 186.481C121.442 186.162 120.599 186.079 119.785 186.24C118.971 186.401 118.224 186.801 117.637 187.387C117.051 187.974 116.652 188.721 116.49 189.535C116.329 190.349 116.413 191.192 116.731 191.958C117.049 192.724 117.588 193.378 118.279 193.838C118.969 194.298 119.781 194.542 120.61 194.54C121.718 194.537 122.78 194.096 123.563 193.313C124.346 192.529 124.787 191.468 124.79 190.36Z" fill="white" stroke="#3E435D" stroke-linecap="round" stroke-linejoin="round"/>
<path d="M118.24 230.25C118.24 229.421 117.994 228.61 117.533 227.921C117.072 227.232 116.417 226.695 115.651 226.378C114.885 226.061 114.042 225.979 113.229 226.141C112.416 226.304 111.669 226.704 111.084 227.291C110.498 227.878 110.1 228.625 109.939 229.439C109.779 230.252 109.863 231.095 110.182 231.86C110.5 232.626 111.039 233.28 111.729 233.739C112.42 234.198 113.231 234.442 114.06 234.44C114.61 234.44 115.154 234.332 115.662 234.121C116.17 233.91 116.631 233.601 117.019 233.212C117.407 232.823 117.715 232.361 117.925 231.853C118.134 231.344 118.241 230.8 118.24 230.25Z" fill="white" stroke="#3E435D" stroke-linecap="round" stroke-linejoin="round"/>
<path d="M108.64 270.14C108.64 269.311 108.394 268.501 107.934 267.812C107.473 267.123 106.819 266.586 106.053 266.269C105.288 265.952 104.445 265.869 103.632 266.031C102.82 266.192 102.073 266.591 101.487 267.177C100.901 267.763 100.502 268.51 100.34 269.323C100.179 270.135 100.262 270.978 100.579 271.743C100.896 272.509 101.433 273.163 102.122 273.624C102.811 274.084 103.621 274.33 104.45 274.33C105.561 274.33 106.627 273.889 107.413 273.103C108.198 272.317 108.64 271.251 108.64 270.14Z" fill="white" stroke="#3E435D" stroke-linecap="round" stroke-linejoin="round"/>
<path d="M95.97 314.21C98.2786 314.21 100.15 312.339 100.15 310.03C100.15 307.721 98.2786 305.85 95.97 305.85C93.6615 305.85 91.79 307.721 91.79 310.03C91.79 312.339 93.6615 314.21 95.97 314.21Z" fill="white" stroke="#3E435D" stroke-linecap="round" stroke-linejoin="round"/>
<path d="M89.1799 301.81C86.9273 301.834 84.7762 302.751 83.1993 304.36C81.6224 305.968 80.7486 308.137 80.7699 310.39C80.7666 311.85 81.1314 313.286 81.8306 314.568C82.5297 315.849 83.5407 316.933 84.7699 317.72L85.6799 314.54C85.1005 314.015 84.6374 313.375 84.3205 312.66C84.0036 311.945 83.8399 311.172 83.8399 310.39C83.8399 308.979 84.4004 307.626 85.3981 306.628C86.3958 305.63 87.749 305.07 89.1599 305.07C90.5709 305.07 91.924 305.63 92.9217 306.628C93.9194 307.626 94.4799 308.979 94.4799 310.39C94.4627 310.603 94.4899 310.818 94.5598 311.02C94.6296 311.223 94.7406 311.408 94.8858 311.566C95.0309 311.723 95.2071 311.848 95.4031 311.934C95.5992 312.02 95.8109 312.064 96.0249 312.064C96.2389 312.064 96.4507 312.02 96.6467 311.934C96.8428 311.848 97.0189 311.723 97.1641 311.566C97.3092 311.408 97.4202 311.223 97.49 311.02C97.5599 310.818 97.5871 310.603 97.5699 310.39C97.5913 308.141 96.7202 305.975 95.1476 304.367C93.575 302.758 91.4291 301.839 89.1799 301.81Z" fill="#8C8C8C" stroke="#3E435D" stroke-linecap="round" stroke-linejoin="round"/>
<path d="M97.6599 261.91C95.6576 261.955 93.7337 262.697 92.2195 264.008C90.7053 265.319 89.6955 267.117 89.3639 269.092C89.0324 271.068 89.3998 273.097 90.4029 274.83C91.406 276.564 92.9821 277.893 94.8599 278.59L95.5299 275.52C94.576 275.079 93.7685 274.373 93.2032 273.487C92.6378 272.601 92.3382 271.571 92.3399 270.52C92.3088 269.803 92.4232 269.086 92.6763 268.414C92.9293 267.742 93.3158 267.129 93.8124 266.61C94.309 266.091 94.9055 265.679 95.5659 265.397C96.2262 265.115 96.9368 264.969 97.6549 264.969C98.3729 264.969 99.0836 265.115 99.7439 265.397C100.404 265.679 101.001 266.091 101.497 266.61C101.994 267.129 102.38 267.742 102.634 268.414C102.887 269.086 103.001 269.803 102.97 270.52C102.97 270.931 103.133 271.325 103.424 271.616C103.715 271.907 104.109 272.07 104.52 272.07C104.931 272.07 105.325 271.907 105.616 271.616C105.907 271.325 106.07 270.931 106.07 270.52C106.083 269.402 105.876 268.293 105.461 267.256C105.045 266.218 104.429 265.273 103.648 264.473C102.867 263.674 101.937 263.036 100.909 262.596C99.8815 262.156 98.7775 261.923 97.6599 261.91Z" fill="#8C8C8C" stroke="#3E435D" stroke-linecap="round" stroke-linejoin="round"/>
<path d="M107.26 222C105.006 222.026 102.855 222.946 101.279 224.556C99.7021 226.166 98.8287 228.336 98.85 230.59C98.8457 232.33 99.369 234.031 100.351 235.468C101.333 236.906 102.727 238.011 104.35 238.64L105.01 235.54C104.087 235.084 103.31 234.379 102.767 233.504C102.225 232.629 101.938 231.619 101.94 230.59C101.94 229.891 102.078 229.2 102.345 228.554C102.612 227.909 103.004 227.322 103.498 226.828C103.992 226.334 104.579 225.942 105.224 225.675C105.87 225.408 106.561 225.27 107.26 225.27C107.959 225.27 108.65 225.408 109.296 225.675C109.941 225.942 110.528 226.334 111.022 226.828C111.516 227.322 111.908 227.909 112.175 228.554C112.442 229.2 112.58 229.891 112.58 230.59C112.58 231.001 112.743 231.395 113.034 231.686C113.325 231.977 113.719 232.14 114.13 232.14C114.541 232.14 114.935 231.977 115.226 231.686C115.517 231.395 115.68 231.001 115.68 230.59C115.699 228.335 114.823 226.165 113.245 224.555C111.667 222.945 109.514 222.026 107.26 222Z" fill="#8C8C8C" stroke="#3E435D" stroke-linecap="round" stroke-linejoin="round"/>
<path d="M113.81 182.13C111.744 182.153 109.755 182.92 108.208 184.289C106.661 185.659 105.658 187.54 105.384 189.588C105.109 191.636 105.582 193.714 106.714 195.442C107.846 197.171 109.563 198.434 111.55 199L112.01 195.89C110.97 195.49 110.076 194.783 109.448 193.863C108.819 192.944 108.485 191.854 108.49 190.74C108.49 189.329 109.051 187.976 110.048 186.978C111.046 185.98 112.399 185.42 113.81 185.42C115.221 185.42 116.574 185.98 117.572 186.978C118.57 187.976 119.13 189.329 119.13 190.74C119.13 191.151 119.293 191.545 119.584 191.836C119.875 192.127 120.269 192.29 120.68 192.29C121.091 192.29 121.485 192.127 121.776 191.836C122.067 191.545 122.23 191.151 122.23 190.74C122.254 188.482 121.381 186.307 119.802 184.692C118.223 183.078 116.068 182.156 113.81 182.13Z" fill="#8C8C8C" stroke="#3E435D" stroke-linecap="round" stroke-linejoin="round"/>
<path d="M119 142.24C116.746 142.264 114.594 143.18 113.016 144.789C111.437 146.397 110.561 148.566 110.58 150.82C110.576 152.593 111.12 154.325 112.136 155.778C113.153 157.231 114.593 158.335 116.26 158.94L116.65 155.73C115.747 155.266 114.99 154.562 114.461 153.696C113.932 152.83 113.651 151.835 113.65 150.82C113.65 149.409 114.21 148.056 115.208 147.058C116.206 146.06 117.559 145.5 118.97 145.5C120.381 145.5 121.734 146.06 122.732 147.058C123.729 148.056 124.29 149.409 124.29 150.82C124.273 151.033 124.3 151.248 124.37 151.45C124.44 151.653 124.551 151.838 124.696 151.995C124.841 152.153 125.017 152.278 125.213 152.364C125.409 152.45 125.621 152.494 125.835 152.494C126.049 152.494 126.261 152.45 126.457 152.364C126.653 152.278 126.829 152.153 126.974 151.995C127.119 151.838 127.23 151.653 127.3 151.45C127.37 151.248 127.397 151.033 127.38 150.82C127.401 148.572 126.532 146.408 124.961 144.8C123.391 143.192 121.247 142.272 119 142.24Z" fill="#8C8C8C" stroke="#3E435D" stroke-linecap="round" stroke-linejoin="round"/>
</svg>
